<svg version="1.1" id="Layer_1" xmlns="http://www.w3.org/2000/svg" xmlns:xlink="http://www.w3.org/1999/xlink" x="0px" y="0px"
	 viewBox="0 0 115 44.3" style="enable-background:new 0 0 115 44.3;" xml:space="preserve">
<style type="text/css">
	.st0{fill:none;stroke:#000000;stroke-width:1.4173;stroke-miterlimit:10;}

	<defs>
		<style>
		.st0 {
			stroke-dasharray: 800;
			stroke-dashoffset: 0;
			-webkit-animation: dash 15s linear forwards;
			-o-animation: dash 15s linear forwards;
			-moz-animation: dash 15s linear forwards;
			animation: dash 15s linear forwards;
		}

			@-webkit-keyframes dash{
				0%{
					stroke-dashoffset: 800;
				}
				20%{
					stroke-dashoffset: 600;
				}

				40%{
					stroke-dashoffset: 400;
				}

				60%{
					stroke-dashoffset: 200;
				}

				80%{
					stroke-dashoffset: 100;
				}

				100%{
					stroke-dashoffset: 0;
				}
			}

	</style>
	</defs>
		
</style>
<g>
	<path class="st0" d="M12.8,25.2c0.9,0,1.4,0.3,1.4,1.1c0,0.5-0.4,0.9-1.2,1.2c-1.5,0.5-2.2,1.5-2.2,2.8c0,1,0.4,1.9,1.2,2.5
		c0.7,0.5,1.6,0.8,2.7,0.8c2.2,0,4.1-0.6,5.8-1.9c1-0.8,1.5-1.8,1.5-3.1c0-0.8-0.2-1.5-0.4-2.1c-0.3-0.6-0.8-1.5-1.5-2.4
		c-1-1.5-1.8-2.8-2.5-4c-0.8-1.4-1.1-2.7-1.1-4c0-3.1,1.5-6,4.6-8.7c1.6-1.4,3.4-2.6,5.3-3.4c1.6-0.8,3.2-1.1,4.7-1.1
		c0.9,0,1.8,0.3,2.5,0.8c0.9,0.6,1.2,1.5,1.2,2.5c0,1.6-0.9,3.4-2.7,5.3c-1.7,1.8-3.6,3.3-5.9,4.4c-1.1,0.6-2,0.9-2.6,0.9
		c-0.3,0-0.7-0.2-1-0.4c-0.2-0.2-0.3-0.4-0.3-0.7c0-0.6,0.5-1.1,1.6-1.5c2-0.7,3.8-1.7,5.3-3c2-1.6,3-3.1,3-4.3
		c0-0.5-0.2-0.9-0.6-1.2c-0.3-0.3-0.7-0.3-1.1-0.3c-1.1,0-2.6,0.4-4.3,1.3c-2.3,1.2-4.1,2.7-5.4,4.6c-1.1,1.6-1.7,3.2-1.7,4.6
		c0,1.1,0.3,2.2,0.9,3.4c0.5,0.9,1.2,2,2,3.2c0.8,1.1,1.4,2.2,1.9,3.2c0.6,1.1,0.9,2.2,0.9,3.3c0,2-1.1,3.7-3.4,5.2
		c-1.9,1.3-4,1.9-6.5,1.9c-2.3,0-4.2-0.7-5.6-2c-1-1-1.5-2.2-1.5-3.4c0-1.5,0.5-2.7,1.5-3.6c0.6-0.6,1.3-1,2.1-1.4
		C12.1,25.3,12.5,25.2,12.8,25.2z"/>
	<path class="st0" d="M35,30.6c-0.5,0.9-1.1,1.8-1.6,2.4c-1,1.3-2.1,1.9-3.1,1.9c-0.9,0-1.5-0.4-2.1-1.3c-0.3-0.5-0.4-1.2-0.4-1.9
		c0-1.8,0.6-3.9,1.7-6.1c1.3-2.5,2.8-4.4,4.6-5.7c1.2-0.9,2.3-1.3,3.4-1.3c0.7,0,1.3,0.3,1.7,0.6s0.6,0.8,0.6,1.3
		c0,0.3-0.2,0.9-0.4,1.5c0.3,0.3,0.3,0.7,0.3,0.9c0,0.3-0.3,0.9-0.7,1.7c-0.5,0.8-0.9,1.9-1.5,3.2c-0.5,1.5-0.8,2.6-0.8,3.4
		c0,0.7,0.2,1.3,0.6,1.7c0.1,0.1,0.4,0.3,1,0.6c0.4,0.2,0.6,0.5,0.6,1c0,0.3-0.1,0.6-0.3,0.8c-0.3,0.3-0.5,0.3-0.9,0.3
		c-0.9,0-1.6-0.4-2.3-1.2c-0.5-0.6-0.8-1.5-0.8-2.4C34.9,31.9,34.9,31.4,35,30.6z M38.1,22.4c-0.2-0.3-0.4-0.6-0.6-0.8
		c-0.3-0.2-0.5-0.3-0.8-0.3c-1.3,0-2.6,1.1-4.1,3.3c-1.6,2.4-2.4,4.5-2.4,6.2c0,0.4,0.1,0.7,0.3,0.9c0.2,0.3,0.4,0.3,0.7,0.3
		c0.8,0,1.7-0.9,2.8-2.5c0.6-0.9,1.3-2.3,2.2-4.1c0.6-1.2,1-2,1.3-2.3C37.5,23,37.7,22.8,38.1,22.4z"/>
	<path class="st0" d="M45.4,26.2c0.2-0.2,0.4-0.4,0.6-0.6c3.4-3.4,5.8-5.1,7-5.1c0.6,0,0.9,0.3,0.9,1c0,0.5-0.3,1.1-0.9,1.7
		c-3.2,3.7-4.7,7-4.7,9.7c0,0.9,0.3,1.8,0.8,2.6c0.3,0.3,0.3,0.7,0.3,0.9c0,0.2-0.1,0.4-0.3,0.6c-0.3,0.3-0.4,0.3-0.8,0.3
		c-0.7,0-1.3-0.4-1.7-1.3c-0.4-0.8-0.7-1.8-0.7-2.9c0-2.2,0.9-4.7,2.5-7.4c-2.2,1.5-4.3,4-6.3,7.7c-0.5,0.9-1,1.3-1.5,1.3
		c-0.3,0-0.5-0.1-0.7-0.3c-0.3-0.3-0.3-0.5-0.3-0.9c0-0.9,1-3.3,3-7.1c1.1-2.1,2-3.5,2.6-4.5c0.6-0.9,1.2-1.4,1.6-1.4
		c0.2,0,0.4,0.1,0.6,0.3c0.3,0.3,0.3,0.5,0.3,0.8c0,0.3-0.3,0.9-0.7,1.5C46.4,24.5,45.8,25.4,45.4,26.2z"/>
	<path class="st0" d="M62.9,18.7c-1,1.6-2.1,3.5-3,5.6c-1.3,2.9-2,5.2-2,6.6c0,0.4,0.1,0.7,0.3,0.9s0.4,0.3,0.8,0.3
		c0.9,0,1.8-0.8,3-2.3c0.8-0.9,1.4-1.9,2-2.8c0.3-0.5,0.7-0.9,1-0.9c0.2,0,0.4,0.1,0.5,0.3c0.2,0.2,0.2,0.3,0.2,0.4
		c0,0.6-0.8,2-2.4,4.1c-1.9,2.6-3.7,3.8-5.3,3.8c-0.9,0-1.5-0.4-2.1-1.2c-0.3-0.5-0.5-1.2-0.5-2.1c0-2,0.6-4.3,1.7-7
		c0.3-0.7,1-2.2,2.3-4.8c-0.4,0.1-0.8,0.2-1,0.2c-0.3,0-0.7-0.1-0.9-0.3c-0.3-0.3-0.5-0.5-0.5-0.9c0-0.4,0.3-0.8,0.7-1
		c0.2-0.1,0.8-0.2,1.8-0.3c0.4-0.1,0.9-0.3,1.7-0.4c0.6-1,1.5-2.5,2.8-4.2c0.7-1,1.2-1.6,1.5-1.9c0.4-0.4,0.8-0.6,1-0.6
		c0.2,0,0.4,0.1,0.6,0.3c0.2,0.3,0.3,0.4,0.3,0.6c0,0.4-0.4,1.3-1.4,2.6c-0.6,0.9-1,1.5-1.4,2c1.8-0.5,3.2-0.8,4-0.8
		c0.9,0,1.4,0.3,1.4,1.1c0,0.3-0.2,0.7-0.4,0.9c-0.2,0.1-0.6,0.2-1.3,0.3c-0.3,0-1.5,0.3-3.8,0.9C64.1,18.4,63.5,18.6,62.9,18.7z"/>
	<path class="st0" d="M75.8,18.7c1.4,0,2.1,0.9,2.1,2.5c0,2.2-1,5-3,8.3c-2.2,3.6-4.4,5.5-6.5,5.5c-0.9,0-1.6-0.4-2.1-1.4
		c-0.3-0.4-0.3-0.9-0.3-1.6c0-2.2,0.7-4.4,2.2-6.9c1.4-2.3,2.9-4,4.8-5.3C73.9,19.1,75,18.7,75.8,18.7z M73.3,28.1
		c-0.4-0.3-0.6-0.6-0.6-0.8c0-0.2,0.3-0.5,0.8-1.1c1.5-1.6,2.2-3,2.2-4c0-0.2,0-0.3-0.1-0.4c-0.2-0.3-0.3-0.3-0.6-0.3
		c-0.5,0-1.3,0.5-2.3,1.5c-1.3,1.3-2.3,2.7-3,4.1c-0.8,1.6-1.2,2.9-1.2,4c0,0.3,0.1,0.5,0.3,0.8c0.2,0.3,0.5,0.4,0.9,0.4
		c0.8,0,1.6-0.6,2.6-1.8c0.4-0.5,0.7-1,0.9-1.5C73.2,28.4,73.3,28.1,73.3,28.1z"/>
	<path class="st0" d="M89.4,18.2c1,0,1.8,0.2,2.3,0.5c0.5,0.3,0.8,0.9,0.8,1.6c0,0.9-0.3,1.9-1.1,2.8c-0.7,0.9-1.7,1.5-3.1,2.1
		c-0.8,0.3-1.4,0.4-1.9,0.4c-0.7,0-1-0.3-1-0.9c0-0.4,0.2-0.7,0.6-0.9c0.1-0.1,0.7-0.2,1.7-0.4c0.6-0.2,1.2-0.4,1.7-0.9
		c0.4-0.3,0.7-0.8,0.7-1.2c0-0.3-0.1-0.6-0.3-0.8c-0.2-0.2-0.5-0.3-0.9-0.3c-0.9,0-2,0.4-3.2,1.2c-1.4,0.9-2,1.9-2,3.1
		c0,0.9,0.4,1.9,1.3,3.2c0.9,1.4,1.5,2.6,1.5,3.5c0,1.5-0.6,2.6-1.9,3.4c-0.8,0.5-1.7,0.8-2.7,0.8c-1.5,0-2.8-0.6-3.6-1.7
		c-0.6-0.8-0.9-1.8-0.9-2.8c0-1.3,0.3-2.4,1-3.3c0.4-0.6,0.9-0.9,1.4-0.9c0.4,0,0.6,0.2,0.6,0.5c0,0.2-0.1,0.3-0.3,0.6
		c-0.3,0.7-0.6,1.5-0.6,2.5c0,0.8,0.3,1.5,0.9,2.1c0.5,0.5,1.1,0.8,1.7,0.8s1.1-0.2,1.5-0.6c0.3-0.3,0.4-0.9,0.4-1.4
		c0-0.7-0.4-1.6-1.2-2.7c-1.1-1.5-1.6-2.9-1.6-4.1c0-1.6,0.9-3.1,2.7-4.4C85.7,18.9,87.5,18.2,89.4,18.2z"/>
	<path class="st0" d="M97,24.6c1.2-1.3,2.4-2.3,3.7-3.2c1.5-1.1,2.7-1.6,3.4-1.6c0.3,0,0.5,0.1,0.9,0.3c0.3,0.3,0.4,0.6,0.4,0.9
		c0,0.4-0.3,1.1-1,2.1c-1.4,1.8-2.4,3.4-3.1,5c-0.6,1.3-0.9,2.2-0.9,2.7c0,0.4,0.2,0.7,0.6,0.7c0.9,0,2.4-1.5,4.5-4.7
		c0.4-0.6,0.9-0.9,1.2-0.9c0.3,0,0.5,0.2,0.5,0.6c0,0.6-0.6,1.9-1.9,3.7c-1.1,1.5-2.2,2.8-3.4,3.6c-0.9,0.6-1.6,0.9-2.3,0.9
		c-0.7,0-1.2-0.3-1.5-0.9c-0.2-0.3-0.3-0.8-0.3-1.3c0-1.5,0.5-3.2,1.5-5c0.3-0.4,1-1.7,2.2-3.8c-3.4,1.7-6.2,5.4-8.5,11
		c-0.3,0.6-0.5,0.9-1,0.9c-0.3,0-0.6-0.1-0.8-0.3c-0.2-0.3-0.3-0.5-0.3-0.9c0-0.5,0.5-2.1,1.5-4.6c2-4.7,3.8-8.7,5.5-12
		c1.7-3.3,3.6-6.7,5.7-10.3c0.5-0.9,0.9-1.5,1.2-1.7c0.3-0.3,0.6-0.4,0.9-0.4s0.5,0.2,0.8,0.4c0.2,0.3,0.3,0.5,0.3,0.8
		c0,0.4-0.3,1.1-0.8,1.9c-1.8,2.8-3.5,5.8-5.3,9.1C98.6,20.9,97.4,23.3,97,24.6z"/>
</g>
</svg>
