<svg xmlns="http://www.w3.org/2000/svg" viewBox="0 0 115 40.36"><title>Asset 1</title><g id="Layer_2" data-name="Layer 2"><g id="Layer_1-2" data-name="Layer 1"><path d="M5.65,26c1,0,1.55.42,1.55,1.26q0,1-1.44,1.44a3.26,3.26,0,0,0-2.48,3.2,3.35,3.35,0,0,0,1.44,2.88,5.36,5.36,0,0,0,3.14.87,10.53,10.53,0,0,0,6.66-2.22,4.37,4.37,0,0,0,1.79-3.57,5.45,5.45,0,0,0-.52-2.39,26.61,26.61,0,0,0-1.67-2.77q-1.74-2.6-2.91-4.72A9.42,9.42,0,0,1,9.88,15.3q0-5.38,5.33-10.09a25.39,25.39,0,0,1,6.22-4A13.5,13.5,0,0,1,26.88,0a4.68,4.68,0,0,1,2.88.89A3.43,3.43,0,0,1,31.2,3.8q0,2.88-3.11,6.23a24.47,24.47,0,0,1-6.86,5.12,7.35,7.35,0,0,1-3,1,1.6,1.6,0,0,1-1.18-.54,1.2,1.2,0,0,1-.34-.84c0-.71.63-1.29,1.9-1.73A19.81,19.81,0,0,0,24.8,9.54c2.31-1.92,3.46-3.61,3.46-5a1.62,1.62,0,0,0-.69-1.35,2.14,2.14,0,0,0-1.3-.4,11.71,11.71,0,0,0-5,1.52A17.13,17.13,0,0,0,15,9.54a9.33,9.33,0,0,0-2,5.44A8.6,8.6,0,0,0,14,19c.6,1.09,1.35,2.33,2.28,3.71s1.63,2.56,2.24,3.69a8.12,8.12,0,0,1,1.07,3.77q0,3.4-3.89,6a13.27,13.27,0,0,1-7.49,2.19,8.81,8.81,0,0,1-6.45-2.27,5.43,5.43,0,0,1-1.76-4,5.76,5.76,0,0,1,1.67-4.2,6.52,6.52,0,0,1,2.39-1.56A4.51,4.51,0,0,1,5.65,26Z"/><path d="M31.29,32.32a21.67,21.67,0,0,1-1.88,2.83c-1.21,1.49-2.41,2.24-3.6,2.24a2.69,2.69,0,0,1-2.42-1.47,4.45,4.45,0,0,1-.54-2.24,15.5,15.5,0,0,1,2-7.06A18.76,18.76,0,0,1,30.28,20a6.88,6.88,0,0,1,4-1.5,2.85,2.85,0,0,1,2,.75,2,2,0,0,1,.69,1.5,4.76,4.76,0,0,1-.49,1.76,1.9,1.9,0,0,1,.43,1.06,4.87,4.87,0,0,1-.8,2,21.32,21.32,0,0,0-1.67,3.75,12.35,12.35,0,0,0-.9,4,2.81,2.81,0,0,0,.72,2,5.13,5.13,0,0,0,1.18.66,1.24,1.24,0,0,1,.72,1.21,1.12,1.12,0,0,1-.4.9,1.48,1.48,0,0,1-1,.37,3.36,3.36,0,0,1-2.68-1.38,4.34,4.34,0,0,1-.92-2.83C31.17,33.84,31.21,33.21,31.29,32.32Zm3.6-9.47a2.77,2.77,0,0,0-.75-.94,1.43,1.43,0,0,0-.87-.3c-1.46,0-3,1.27-4.75,3.83q-2.82,4.23-2.82,7.17a1.88,1.88,0,0,0,.27,1.1,1,1,0,0,0,.82.37q1.38,0,3.23-2.94a49.14,49.14,0,0,0,2.56-4.75,24.47,24.47,0,0,1,1.47-2.71A4.09,4.09,0,0,1,34.89,22.85Z"/><path d="M43.41,27.2l.72-.7q6-5.87,8.07-5.87c.75,0,1.12.41,1.12,1.24a3.42,3.42,0,0,1-1,2q-5.51,6.42-5.51,11.32a5.77,5.77,0,0,0,.87,3,2.22,2.22,0,0,1,.4,1,.9.9,0,0,1-.34.67,1.18,1.18,0,0,1-.9.4,2.34,2.34,0,0,1-2-1.5,7.1,7.1,0,0,1-.77-3.43A16.65,16.65,0,0,1,47,26.82q-3.93,2.5-7.29,8.87c-.58,1-1.19,1.53-1.85,1.53a1,1,0,0,1-.8-.34,1.42,1.42,0,0,1-.41-1q0-1.56,3.55-8.15a59.57,59.57,0,0,1,3-5.19c.73-1.06,1.36-1.58,1.88-1.58a1,1,0,0,1,.72.34,1.31,1.31,0,0,1,.4.92A3.65,3.65,0,0,1,45.37,24,32,32,0,0,0,43.41,27.2Z"/><path d="M63.81,18.52A47.24,47.24,0,0,0,60.35,25q-2.26,5.13-2.27,7.67a1.71,1.71,0,0,0,.3,1.09,1.09,1.09,0,0,0,.91.38c1,0,2.12-.91,3.48-2.71a33.44,33.44,0,0,0,2.31-3.34c.36-.64.76-.95,1.18-.95a.82.82,0,0,1,.63.26.74.74,0,0,1,.23.51c0,.72-.93,2.3-2.79,4.76-2.23,3-4.26,4.43-6.11,4.43a2.94,2.94,0,0,1-2.45-1.35,4.26,4.26,0,0,1-.6-2.45,20.78,20.78,0,0,1,2-8.12q.48-1.16,2.7-5.56a5.39,5.39,0,0,1-1.18.2,2,2,0,0,1-1.06-.29,1.17,1.17,0,0,1-.64-1,1.3,1.3,0,0,1,.84-1.15A12.87,12.87,0,0,1,60,17a15.85,15.85,0,0,0,2-.55,50.63,50.63,0,0,1,3.28-4.93A27.69,27.69,0,0,1,67,9.31a1.89,1.89,0,0,1,1.21-.73A1.06,1.06,0,0,1,69,9a1.11,1.11,0,0,1,.34.75c0,.5-.54,1.49-1.61,3-.71,1-1.24,1.74-1.59,2.34a20.27,20.27,0,0,1,4.59-.87c1,0,1.58.45,1.58,1.33a1,1,0,0,1-.55,1,4.86,4.86,0,0,1-1.5.29,28.6,28.6,0,0,0-4.35,1.09Q64.85,18.18,63.81,18.52Z"/><path d="M78.79,18.5c1.58,0,2.36,1,2.36,2.88q0,3.82-3.54,9.7-3.85,6.38-7.46,6.37A2.58,2.58,0,0,1,67.7,35.9,4,4,0,0,1,67.3,34a16,16,0,0,1,2.53-8,19.47,19.47,0,0,1,5.56-6.22A6.17,6.17,0,0,1,78.79,18.5Zm-3,10.88c-.49-.38-.72-.68-.72-.89s.3-.57.92-1.27q2.59-2.91,2.59-4.69a.91.91,0,0,0-.14-.46.77.77,0,0,0-.72-.43c-.62,0-1.52.59-2.71,1.78a18.28,18.28,0,0,0-3.52,4.75,10.92,10.92,0,0,0-1.41,4.64,1.51,1.51,0,0,0,.26.87,1.15,1.15,0,0,0,1,.52c.92,0,1.91-.7,3-2.08a9,9,0,0,0,1.12-1.78A7,7,0,0,0,75.8,29.38Z"/><path d="M94.58,18a4.67,4.67,0,0,1,2.68.63,2.22,2.22,0,0,1,.89,1.93,5.19,5.19,0,0,1-1.27,3.29,8.41,8.41,0,0,1-3.63,2.42,6.8,6.8,0,0,1-2.21.49c-.81,0-1.21-.36-1.21-1.07a1.19,1.19,0,0,1,.69-1.1c.11-.05.76-.22,2-.48a4.36,4.36,0,0,0,2-1,1.89,1.89,0,0,0,.78-1.44,1.11,1.11,0,0,0-.34-.9,1.61,1.61,0,0,0-1-.28,6.82,6.82,0,0,0-3.69,1.35,4.36,4.36,0,0,0-2.33,3.63,7.15,7.15,0,0,0,1.53,3.74A7.85,7.85,0,0,1,91,33.3a4.5,4.5,0,0,1-2.25,4,5.7,5.7,0,0,1-3.14.89,4.86,4.86,0,0,1-4.21-2,5.6,5.6,0,0,1-1-3.34,6.07,6.07,0,0,1,1.16-3.77,2,2,0,0,1,1.55-1c.48,0,.72.19.72.58a1.56,1.56,0,0,1-.26.69,6.07,6.07,0,0,0-.66,2.91,3.21,3.21,0,0,0,1,2.39,2.87,2.87,0,0,0,2,.86,2.18,2.18,0,0,0,1.76-.75,2.43,2.43,0,0,0,.52-1.61A6,6,0,0,0,86.89,30,8.51,8.51,0,0,1,85,25.18c0-1.92,1-3.62,3.14-5.1A11.06,11.06,0,0,1,94.58,18Z"/><path d="M103.37,25.29a30,30,0,0,1,4.26-3.71c1.82-1.27,3.13-1.9,3.92-1.9a1.44,1.44,0,0,1,1,.4,1.41,1.41,0,0,1,.52,1.07,5.12,5.12,0,0,1-1.24,2.42,33.65,33.65,0,0,0-3.63,5.76,9.1,9.1,0,0,0-1.1,3.05q0,.78.75.78c1,0,2.79-1.85,5.24-5.53.5-.75,1-1.13,1.36-1.13s.6.23.6.7c0,.74-.73,2.18-2.19,4.29a16.64,16.64,0,0,1-4,4.23,4.77,4.77,0,0,1-2.65,1,1.86,1.86,0,0,1-1.79-1.06,3.18,3.18,0,0,1-.34-1.47,12.4,12.4,0,0,1,1.81-5.85q.43-.78,2.59-4.44-5.86,3-9.93,12.82c-.25.75-.64,1.12-1.16,1.12a1.16,1.16,0,0,1-.89-.37,1.47,1.47,0,0,1-.35-1q0-.95,1.85-5.39,3.42-8.23,6.39-13.94t6.6-12a12.76,12.76,0,0,1,1.35-2,1.43,1.43,0,0,1,1-.52,1.06,1.06,0,0,1,.89.55,1.48,1.48,0,0,1,.29.92,4.22,4.22,0,0,1-.92,2.16q-3.11,4.82-6.19,10.57A66.59,66.59,0,0,0,103.37,25.29Z"/></g></g></svg>