<?xml version="1.0" encoding="utf-8"?>
<!-- Generator: Adobe Illustrator 22.1.0, SVG Export Plug-In . SVG Version: 6.00 Build 0)  -->
<svg version="1.1" id="Layer_1" xmlns="http://www.w3.org/2000/svg" xmlns:xlink="http://www.w3.org/1999/xlink" x="0px" y="0px"
	 viewBox="0 0 42.5 20.7" style="enable-background:new 0 0 42.5 20.7;" xml:space="preserve">
<style type="text/css">
	.st0{fill:none;stroke:#000000;stroke-width:0.2835;stroke-miterlimit:10;}
	
</style>
<g>
	<path class="st0" d="M6.9,7.3c0,0.8-0.3,1.4-0.8,1.8S4.7,9.8,3.7,9.8C2.8,9.8,2,9.6,1.3,9.2V7.6C1.9,7.8,2.4,8,2.8,8.1
		s0.8,0.2,1.1,0.2c0.4,0,0.7-0.1,0.9-0.2s0.3-0.4,0.3-0.7c0-0.2,0-0.3-0.1-0.4S4.7,6.6,4.6,6.5S4,6.2,3.5,5.9
		C2.9,5.7,2.5,5.5,2.3,5.2S1.8,4.7,1.6,4.4S1.4,3.8,1.4,3.4c0-0.8,0.3-1.4,0.8-1.8S3.4,1,4.3,1C4.8,1,5.2,1,5.6,1.1s0.8,0.3,1.3,0.4
		L6.3,3C5.8,2.8,5.4,2.6,5.1,2.6S4.5,2.5,4.3,2.5c-0.3,0-0.6,0.1-0.8,0.2S3.2,3.1,3.2,3.3c0,0.2,0,0.3,0.1,0.4S3.5,4,3.7,4.1
		s0.5,0.3,1.2,0.6c0.8,0.4,1.3,0.8,1.6,1.2S6.9,6.7,6.9,7.3z"/>
	<path class="st0" d="M13.7,9.6l-0.6-2H9.9l-0.6,2h-2l3-8.6h2.2l3,8.6H13.7z M12.6,6.1c-0.6-1.8-0.9-2.9-1-3.1s-0.1-0.4-0.2-0.6
		c-0.1,0.5-0.5,1.7-1.1,3.7H12.6z"/>
	<path class="st0" d="M24.3,9.6H22l-3.7-6.5h-0.1c0.1,1.1,0.1,2,0.1,2.4v4h-1.6V1.1H19l3.7,6.4h0c-0.1-1.1-0.1-1.9-0.1-2.4V1.1h1.6
		V9.6z"/>
	<path class="st0" d="M29.8,9.6H28V2.6h-2.3V1.1h6.5v1.5h-2.3V9.6z"/>
</g>
<rect x="33.6" y="1.1" class="st0" width="8.4" height="8.4"/>
<g>
	<path class="st0" d="M33.3,17.3c0,0.8-0.3,1.4-0.8,1.8s-1.3,0.7-2.3,0.7c-0.9,0-1.7-0.2-2.4-0.5v-1.7c0.6,0.3,1.1,0.4,1.5,0.5
		s0.8,0.2,1.1,0.2c0.4,0,0.7-0.1,0.9-0.2s0.3-0.4,0.3-0.7c0-0.2,0-0.3-0.1-0.4s-0.2-0.3-0.4-0.4s-0.6-0.3-1.1-0.6
		c-0.5-0.2-0.9-0.5-1.2-0.7s-0.5-0.5-0.6-0.8s-0.2-0.7-0.2-1.1c0-0.8,0.3-1.4,0.8-1.8s1.2-0.7,2.1-0.7c0.4,0,0.9,0.1,1.3,0.2
		s0.8,0.3,1.3,0.4L32.7,13c-0.5-0.2-0.8-0.3-1.1-0.4s-0.6-0.1-0.9-0.1c-0.3,0-0.6,0.1-0.8,0.2s-0.3,0.4-0.3,0.6c0,0.2,0,0.3,0.1,0.4
		s0.2,0.2,0.4,0.3s0.5,0.3,1.2,0.6c0.8,0.4,1.3,0.8,1.6,1.2S33.3,16.8,33.3,17.3z"/>
	<path class="st0" d="M41.9,19.7h-1.8V16h-3.4v3.7h-1.8v-8.6h1.8v3.4h3.4v-3.4h1.8V19.7z"/>
</g>
<line class="st0" x1="1.5" y1="16.3" x2="24.5" y2="16.3"/>
</svg>
